<mxfile host="app.diagrams.net" modified="2023-06-21T16:50:27.348Z" agent="Mozilla/5.0 (Macintosh; Intel Mac OS X 10_15_7) AppleWebKit/537.36 (KHTML, like Gecko) Chrome/114.0.0.0 Safari/537.36" etag="NQfxSLD2C2ZzjxjeX_Tt" version="21.3.7" type="device">
  <diagram name="Page-1" id="I9Syr5D5omtT3YhniNSb">
    <mxGraphModel dx="1306" dy="687" grid="1" gridSize="10" guides="1" tooltips="1" connect="1" arrows="1" fold="1" page="1" pageScale="1" pageWidth="850" pageHeight="1100" math="0" shadow="0">
      <root>
        <mxCell id="0" />
        <mxCell id="1" parent="0" />
        <mxCell id="um_gjIp6t0XMsX9l-3DA-5" style="edgeStyle=orthogonalEdgeStyle;rounded=0;orthogonalLoop=1;jettySize=auto;html=1;entryX=0.012;entryY=0.463;entryDx=0;entryDy=0;entryPerimeter=0;strokeWidth=2;fillColor=#0050ef;strokeColor=#001DBC;exitX=1;exitY=0.25;exitDx=0;exitDy=0;fontSize=13;" edge="1" parent="1" source="um_gjIp6t0XMsX9l-3DA-1" target="um_gjIp6t0XMsX9l-3DA-2">
          <mxGeometry relative="1" as="geometry">
            <mxPoint x="240" y="290" as="sourcePoint" />
            <Array as="points">
              <mxPoint x="230" y="290" />
              <mxPoint x="310" y="290" />
              <mxPoint x="310" y="227" />
            </Array>
          </mxGeometry>
        </mxCell>
        <mxCell id="um_gjIp6t0XMsX9l-3DA-6" value="https://&amp;lt;tenant-name&amp;gt;.b2clogin.com/&amp;lt;tenant-name&amp;gt;.onmicrosoft.com/&amp;lt;policy&amp;gt;&lt;br&gt;/oauth2/v2.0/token" style="edgeLabel;html=1;align=center;verticalAlign=middle;resizable=0;points=[];fontSize=13;" vertex="1" connectable="0" parent="um_gjIp6t0XMsX9l-3DA-5">
          <mxGeometry x="-0.0676" y="1" relative="1" as="geometry">
            <mxPoint x="11" y="-26" as="offset" />
          </mxGeometry>
        </mxCell>
        <mxCell id="um_gjIp6t0XMsX9l-3DA-14" style="edgeStyle=orthogonalEdgeStyle;rounded=0;orthogonalLoop=1;jettySize=auto;html=1;strokeWidth=2;fillColor=#fa6800;strokeColor=#C73500;entryX=0;entryY=0.25;entryDx=0;entryDy=0;entryPerimeter=0;fontSize=13;" edge="1" parent="1" target="um_gjIp6t0XMsX9l-3DA-13">
          <mxGeometry relative="1" as="geometry">
            <mxPoint x="210" y="403" as="sourcePoint" />
            <mxPoint x="490" y="492" as="targetPoint" />
            <Array as="points">
              <mxPoint x="210" y="550" />
            </Array>
          </mxGeometry>
        </mxCell>
        <mxCell id="um_gjIp6t0XMsX9l-3DA-15" value="GET /users (&lt;b style=&quot;border-color: var(--border-color); background-color: rgb(251, 251, 251);&quot;&gt;Header&lt;/b&gt;&lt;br style=&quot;border-color: var(--border-color); background-color: rgb(251, 251, 251);&quot;&gt;Authorization : &amp;lt;JWT access_token&amp;gt;)" style="edgeLabel;html=1;align=center;verticalAlign=middle;resizable=0;points=[];fontSize=13;" vertex="1" connectable="0" parent="um_gjIp6t0XMsX9l-3DA-14">
          <mxGeometry x="-0.0531" y="1" relative="1" as="geometry">
            <mxPoint x="44" y="-18" as="offset" />
          </mxGeometry>
        </mxCell>
        <mxCell id="um_gjIp6t0XMsX9l-3DA-1" value="Client Application" style="rounded=0;whiteSpace=wrap;html=1;fontSize=13;" vertex="1" parent="1">
          <mxGeometry x="110" y="280" width="120" height="120" as="geometry" />
        </mxCell>
        <mxCell id="um_gjIp6t0XMsX9l-3DA-9" style="edgeStyle=orthogonalEdgeStyle;rounded=0;orthogonalLoop=1;jettySize=auto;html=1;entryX=1;entryY=0.613;entryDx=0;entryDy=0;entryPerimeter=0;fillColor=#0050ef;strokeColor=#001DBC;strokeWidth=2;fontSize=13;" edge="1" parent="1" source="um_gjIp6t0XMsX9l-3DA-2" target="um_gjIp6t0XMsX9l-3DA-1">
          <mxGeometry relative="1" as="geometry">
            <Array as="points">
              <mxPoint x="633" y="310" />
              <mxPoint x="410" y="310" />
              <mxPoint x="410" y="354" />
            </Array>
          </mxGeometry>
        </mxCell>
        <mxCell id="um_gjIp6t0XMsX9l-3DA-10" value="return JWT Access Token" style="edgeLabel;html=1;align=center;verticalAlign=middle;resizable=0;points=[];fontSize=13;" vertex="1" connectable="0" parent="um_gjIp6t0XMsX9l-3DA-9">
          <mxGeometry x="-0.0337" y="-2" relative="1" as="geometry">
            <mxPoint x="32" y="-8" as="offset" />
          </mxGeometry>
        </mxCell>
        <mxCell id="um_gjIp6t0XMsX9l-3DA-2" value="AzureAD B2C" style="image;aspect=fixed;html=1;points=[];align=center;fontSize=13;image=img/lib/azure2/identity/Azure_AD_B2C.svg;" vertex="1" parent="1">
          <mxGeometry x="590" y="190" width="86.25" height="80" as="geometry" />
        </mxCell>
        <mxCell id="um_gjIp6t0XMsX9l-3DA-11" value="&lt;div style=&quot;font-size: 13px;&quot;&gt;&lt;b&gt;Sample response :&lt;/b&gt;&lt;/div&gt;&lt;div style=&quot;font-size: 13px;&quot;&gt;{&lt;/div&gt;&lt;div style=&quot;font-size: 13px;&quot;&gt;&amp;nbsp; &amp;nbsp; &quot;access_token&quot;: &quot;eyJ0eXAiOiJKV1QiLCJhbGciOiJSUzI1N...&quot;,&lt;/div&gt;&lt;div style=&quot;font-size: 13px;&quot;&gt;&amp;nbsp; &amp;nbsp; &quot;token_type&quot;: &quot;Bearer&quot;,&lt;/div&gt;&lt;div style=&quot;font-size: 13px;&quot;&gt;&amp;nbsp; &amp;nbsp; &quot;not_before&quot;: 1645172292,&lt;/div&gt;&lt;div style=&quot;font-size: 13px;&quot;&gt;&amp;nbsp; &amp;nbsp; &quot;expires_in&quot;: 3600,&lt;/div&gt;&lt;div style=&quot;font-size: 13px;&quot;&gt;&amp;nbsp; &amp;nbsp; &quot;expires_on&quot;: 1645175892,&lt;/div&gt;&lt;div style=&quot;font-size: 13px;&quot;&gt;&amp;nbsp; &amp;nbsp; &quot;resource&quot;: &quot;33333333-0000-0000-0000-000000000000&quot;&lt;/div&gt;&lt;div style=&quot;font-size: 13px;&quot;&gt;}&lt;/div&gt;" style="text;html=1;strokeColor=#d6b656;fillColor=#fff2cc;align=left;verticalAlign=top;whiteSpace=wrap;rounded=0;fontSize=13;" vertex="1" parent="1">
          <mxGeometry x="760" y="280" width="290" height="180" as="geometry" />
        </mxCell>
        <mxCell id="um_gjIp6t0XMsX9l-3DA-22" style="edgeStyle=orthogonalEdgeStyle;rounded=0;orthogonalLoop=1;jettySize=auto;html=1;exitX=1;exitY=0.25;exitDx=0;exitDy=0;exitPerimeter=0;dashed=1;fontSize=13;" edge="1" parent="1" source="um_gjIp6t0XMsX9l-3DA-13" target="um_gjIp6t0XMsX9l-3DA-2">
          <mxGeometry relative="1" as="geometry">
            <mxPoint x="680" y="230" as="targetPoint" />
            <Array as="points">
              <mxPoint x="721" y="550" />
              <mxPoint x="721" y="230" />
            </Array>
          </mxGeometry>
        </mxCell>
        <mxCell id="um_gjIp6t0XMsX9l-3DA-23" value="Get public key from&amp;nbsp;jwks_uri" style="edgeLabel;html=1;align=center;verticalAlign=middle;resizable=0;points=[];fontSize=13;" vertex="1" connectable="0" parent="um_gjIp6t0XMsX9l-3DA-22">
          <mxGeometry x="-0.313" y="-1" relative="1" as="geometry">
            <mxPoint x="28" y="51" as="offset" />
          </mxGeometry>
        </mxCell>
        <mxCell id="um_gjIp6t0XMsX9l-3DA-13" value="API Gateway&lt;br style=&quot;font-size: 13px;&quot;&gt;HTTP API" style="sketch=0;points=[[0,0,0],[0.25,0,0],[0.5,0,0],[0.75,0,0],[1,0,0],[0,1,0],[0.25,1,0],[0.5,1,0],[0.75,1,0],[1,1,0],[0,0.25,0],[0,0.5,0],[0,0.75,0],[1,0.25,0],[1,0.5,0],[1,0.75,0]];outlineConnect=0;fontColor=#232F3E;gradientColor=#FF4F8B;gradientDirection=north;fillColor=#BC1356;strokeColor=#ffffff;dashed=0;verticalLabelPosition=bottom;verticalAlign=top;align=center;html=1;fontSize=13;fontStyle=0;aspect=fixed;shape=mxgraph.aws4.resourceIcon;resIcon=mxgraph.aws4.api_gateway;" vertex="1" parent="1">
          <mxGeometry x="620" y="530" width="78" height="78" as="geometry" />
        </mxCell>
        <mxCell id="um_gjIp6t0XMsX9l-3DA-19" value="" style="endArrow=classic;html=1;rounded=0;edgeStyle=orthogonalEdgeStyle;exitX=0;exitY=0.75;exitDx=0;exitDy=0;exitPerimeter=0;entryX=0.167;entryY=1.004;entryDx=0;entryDy=0;entryPerimeter=0;strokeWidth=2;fillColor=#fa6800;strokeColor=#C73500;fontSize=13;" edge="1" parent="1" source="um_gjIp6t0XMsX9l-3DA-13" target="um_gjIp6t0XMsX9l-3DA-1">
          <mxGeometry width="50" height="50" relative="1" as="geometry">
            <mxPoint x="160" y="580" as="sourcePoint" />
            <mxPoint x="120" y="410" as="targetPoint" />
          </mxGeometry>
        </mxCell>
        <mxCell id="um_gjIp6t0XMsX9l-3DA-30" value="if( token &amp;amp; scp valid ) {&lt;br style=&quot;font-size: 13px;&quot;&gt;&lt;span style=&quot;font-size: 13px;&quot;&gt;&lt;span style=&quot;white-space: pre;&quot;&gt;&amp;nbsp;&amp;nbsp;&amp;nbsp;&amp;nbsp;&lt;/span&gt;&lt;/span&gt;return data;&lt;br style=&quot;font-size: 13px;&quot;&gt;} else {&lt;br style=&quot;font-size: 13px;&quot;&gt;&lt;span style=&quot;font-size: 13px;&quot;&gt;&lt;span style=&quot;white-space: pre;&quot;&gt;&amp;nbsp;&amp;nbsp;&amp;nbsp;&amp;nbsp;&lt;/span&gt;&lt;/span&gt;return ( Unauthorized - If token is invalid&lt;br style=&quot;border-color: var(--border-color);&quot;&gt;&lt;span style=&quot;white-space: pre;&quot;&gt;&#x9;&lt;/span&gt;&lt;span style=&quot;white-space: pre;&quot;&gt;&#x9;&lt;/span&gt;Forbidden - If scp not present )&lt;br style=&quot;font-size: 13px;&quot;&gt;}" style="edgeLabel;html=1;align=left;verticalAlign=top;resizable=0;points=[];fontSize=13;" vertex="1" connectable="0" parent="um_gjIp6t0XMsX9l-3DA-19">
          <mxGeometry x="-0.1711" relative="1" as="geometry">
            <mxPoint x="-109" y="2" as="offset" />
          </mxGeometry>
        </mxCell>
        <mxCell id="um_gjIp6t0XMsX9l-3DA-25" value="validate access_token signature using the public key downloaded from jwks_uri and also scopes claim (scp)" style="text;html=1;strokeColor=#d6b656;fillColor=#fff2cc;align=center;verticalAlign=middle;whiteSpace=wrap;rounded=0;fontSize=13;" vertex="1" parent="1">
          <mxGeometry x="610" y="650" width="170" height="80" as="geometry" />
        </mxCell>
        <mxCell id="um_gjIp6t0XMsX9l-3DA-26" value="Backend App (HTTP API, Lambda, SQS etc.)" style="rounded=0;whiteSpace=wrap;html=1;fontSize=13;" vertex="1" parent="1">
          <mxGeometry x="850" y="539" width="120" height="60" as="geometry" />
        </mxCell>
        <mxCell id="um_gjIp6t0XMsX9l-3DA-28" value="" style="endArrow=classic;startArrow=classic;html=1;rounded=0;entryX=0;entryY=0.5;entryDx=0;entryDy=0;exitX=1;exitY=0.5;exitDx=0;exitDy=0;exitPerimeter=0;fontSize=13;" edge="1" parent="1" source="um_gjIp6t0XMsX9l-3DA-13" target="um_gjIp6t0XMsX9l-3DA-26">
          <mxGeometry width="50" height="50" relative="1" as="geometry">
            <mxPoint x="340" y="770" as="sourcePoint" />
            <mxPoint x="390" y="720" as="targetPoint" />
          </mxGeometry>
        </mxCell>
        <mxCell id="um_gjIp6t0XMsX9l-3DA-29" value="Get data" style="edgeLabel;html=1;align=center;verticalAlign=middle;resizable=0;points=[];fontSize=13;" vertex="1" connectable="0" parent="um_gjIp6t0XMsX9l-3DA-28">
          <mxGeometry x="-0.2763" y="3" relative="1" as="geometry">
            <mxPoint x="17" y="-6" as="offset" />
          </mxGeometry>
        </mxCell>
        <mxCell id="um_gjIp6t0XMsX9l-3DA-35" value="access_token from AAD B2C" style="endArrow=none;dashed=1;html=1;dashPattern=1 3;strokeWidth=2;rounded=0;edgeStyle=orthogonalEdgeStyle;curved=1;entryX=-0.003;entryY=0.6;entryDx=0;entryDy=0;entryPerimeter=0;" edge="1" parent="1" target="um_gjIp6t0XMsX9l-3DA-11">
          <mxGeometry width="50" height="50" relative="1" as="geometry">
            <mxPoint x="550" y="300" as="sourcePoint" />
            <mxPoint x="580" y="370" as="targetPoint" />
            <Array as="points">
              <mxPoint x="550" y="301" />
              <mxPoint x="640" y="301" />
              <mxPoint x="640" y="388" />
            </Array>
          </mxGeometry>
        </mxCell>
      </root>
    </mxGraphModel>
  </diagram>
</mxfile>
